<svg width="271" height="64" viewBox="0 0 271 64" fill="none" xmlns="http://www.w3.org/2000/svg">
<path d="M179.5 22.4586H181.962V18.6334C181.962 15.9856 183.591 14.126 186.621 14.126H191.695V17.724H187.189C186.621 17.724 186.318 18.0295 186.318 18.6334V22.4586H190.75V26.0596H186.318V42.0017H181.962V26.0596H179.5V22.4586ZM193.59 14.126H197.946V37.2295C197.946 37.7978 198.135 38.0249 198.703 38.0249H201.392V42.0017H197.15C194.461 42.0017 193.586 40.0668 193.586 37.4566L193.59 14.126ZM213.285 21.0949C214.696 21.0946 216.093 21.3729 217.396 21.9139C218.699 22.4548 219.882 23.2477 220.878 24.2471C221.874 25.2464 222.663 26.4326 223.199 27.7375C223.736 29.0425 224.009 30.4405 224.004 31.8513C224.004 37.7581 219.194 42.5323 213.285 42.5323C207.376 42.5323 202.529 37.7601 202.529 31.8513C202.528 30.4385 202.805 29.0394 203.346 27.7339C203.886 26.4285 204.678 25.2423 205.677 24.2433C206.676 23.2443 207.862 22.452 209.168 21.9118C210.473 21.3716 211.872 21.094 213.285 21.0949ZM213.285 38.2897C214.989 38.2683 216.615 37.5765 217.812 36.3643C219.01 35.152 219.681 33.5169 219.681 31.8131C219.681 30.1094 219.01 28.4742 217.812 27.262C216.615 26.0497 214.989 25.3579 213.285 25.3366C211.558 25.3422 209.904 26.0307 208.682 27.2518C207.461 28.4729 206.773 30.1275 206.767 31.8544C206.767 35.377 209.721 38.2927 213.285 38.2927V38.2897ZM211.201 29.2411C211.201 28.9356 211.467 28.7492 211.732 28.9L216.238 31.4725C216.306 31.5001 216.364 31.5474 216.404 31.6082C216.445 31.669 216.466 31.7406 216.466 31.8136C216.461 31.8855 216.438 31.9549 216.398 32.0148C216.358 32.0748 216.303 32.1231 216.238 32.1548L211.731 34.7303C211.674 34.7645 211.607 34.7779 211.542 34.768C211.494 34.7671 211.447 34.7563 211.403 34.7365C211.36 34.7166 211.321 34.688 211.289 34.6525C211.257 34.617 211.233 34.5753 211.217 34.53C211.202 34.4847 211.196 34.4368 211.2 34.3892L211.201 29.2411ZM230.783 41.8887L224.76 21.7009H229.495L234.04 38.1389H234.154L238.847 21.7009H243.354L248.243 38.1389H248.356L252.713 21.7009H257.068L251.162 42.0017H245.024L241.161 27.7227H241.047L236.919 42.0017H230.783V41.8887Z" fill="#F5F5F5"/>
<path d="M15 21.6238H18.8119L18.8883 25.4733H19.0441C20.4169 22.8815 22.9324 21.1278 25.9438 21.1278C31.5847 21.1278 34.8253 25.9306 34.8253 31.8007C34.8253 37.5944 31.5083 42.5876 25.9061 42.5876C22.361 42.5876 20.531 40.6822 19.54 38.6617H19.3873V49.0678H15.0081L15 21.6238ZM24.8724 38.3949C28.1507 38.3949 30.3616 35.7643 30.3616 31.9535C30.3616 28.4461 28.5285 25.1301 25.0252 25.1301C21.5942 25.1301 19.536 28.2179 19.536 31.8007C19.536 35.3834 21.3691 38.3949 24.8724 38.3949ZM47.5523 21.1278C53.1932 21.1278 56.7383 25.397 56.7383 31.2294V33.6685H41.6058C41.949 36.5658 44.6549 38.5476 48.0472 38.5476C50.6014 38.5476 52.4315 37.2512 53.7646 35.8794L56.3574 38.4712C54.1465 41.2535 51.021 42.55 47.7427 42.55C42.4063 42.55 37.298 38.7381 37.298 31.9911C37.298 25.9306 41.8727 21.1278 47.5523 21.1278ZM52.4692 30.2354C52.3928 27.3767 50.6778 25.1281 47.3619 25.1281C44.5022 25.1281 41.949 27.1863 41.6058 30.2354H52.4692ZM60.209 21.6217H64.2114V25.3573H64.3254C65.3163 22.7267 66.7645 21.6217 69.6619 21.6217H70.996V26.0009H68.175C65.6595 26.0009 64.5922 27.4878 64.5922 30.2313V42.0163H60.2131L60.209 21.6217ZM74.6154 35.3834C76.2917 37.4416 78.3499 38.9672 81.0181 38.9672C82.8858 38.9672 84.4491 38.2421 84.4491 36.6799C84.4491 35.0402 82.505 34.2357 80.2176 33.5544C77.0932 32.5635 73.2426 31.152 73.2426 27.2647C73.2426 23.9101 76.5972 21.0525 80.8277 21.0525C85.2119 21.0525 87.765 23.5689 88.9464 26.2372L85.7496 27.8747C85.3236 26.9256 84.6335 26.119 83.7617 25.5513C82.8899 24.9835 81.8731 24.6786 80.8327 24.6729C78.9996 24.6729 77.6309 25.6261 77.6309 27.0366C77.6309 28.7516 79.3082 29.3229 81.6332 30.047C84.8351 31.0379 88.8374 32.258 88.8374 36.298C88.8374 40.338 84.9878 42.5876 80.8714 42.5876C79.084 42.5893 77.3246 42.1437 75.7534 41.2915C74.1823 40.4393 72.8493 39.2076 71.8759 37.7085L74.6154 35.3834ZM101.716 21.0514C107.853 21.0514 112.35 25.9306 112.35 31.8007C112.35 37.7074 107.51 42.5876 101.64 42.5876C95.7697 42.5876 90.9292 37.7085 90.9292 31.8007C90.9292 25.9306 95.8461 21.0514 101.716 21.0514ZM101.637 38.5863C105.296 38.5863 108.155 35.5749 108.155 31.8017C108.155 28.0662 105.296 25.0548 101.637 25.0548C97.9389 25.0548 95.1189 28.0285 95.1189 31.8017C95.1189 35.5372 97.9389 38.5863 101.637 38.5863ZM115.206 21.6248H119.208V25.4744H119.285C120.657 23.0302 122.601 21.0525 126.032 21.0525C130.491 21.0525 132.93 24.4071 132.93 29.1335V42.0163H128.551V29.8189C128.551 27.0366 127.523 24.9397 124.783 24.9397C121.352 24.9397 119.598 28.2943 119.598 31.4575V42.0163H115.219L115.206 21.6248ZM145.326 30.1234H149.329V28.828C149.329 26.7311 148.071 25.1301 145.593 25.1301C143.23 25.1301 141.096 26.7698 140.029 29.0948L136.331 27.3034C138.047 23.3765 141.515 21.1278 145.632 21.1278C150.316 21.1278 153.713 23.8775 153.713 28.828V37.7472C153.713 38.2044 153.789 38.3949 154.284 38.3949H155.812V42.0163H153.029C151.276 42.0163 150.094 40.9867 150.094 38.7758V37.7848H149.904C148.531 40.7586 145.749 42.4695 142.661 42.4695C139.384 42.4695 136.296 40.5641 136.296 36.5628C136.296 32.5614 140.184 30.1203 145.329 30.1203L145.326 30.1234ZM143.538 38.8491C146.288 38.8491 148.988 36.5628 149.332 33.1694H145.564C142.705 33.1694 140.684 34.199 140.684 36.2949C140.684 37.8959 141.866 38.8491 143.543 38.8491H143.538ZM158.866 14H163.245V37.6321C163.245 38.1657 163.283 38.3949 163.93 38.3949H166.68V42.0163H162.435C159.652 42.0163 158.852 40.2249 158.852 37.6708L158.866 14Z" fill="#F5F5F5"/>
</svg>
