<svg width="32" height="32" viewBox="0 0 32 32" fill="none" xmlns="http://www.w3.org/2000/svg">
<path d="M19.5 19H18C17.1562 19 16.5 19.7031 16.5 20.5V22C16.5 22.8438 17.1562 23.5 18 23.5H19.5C20.2969 23.5 21 22.8438 21 22V20.5C21 19.7031 20.2969 19 19.5 19ZM19.5 22H18V20.5H19.5V22ZM19.5 13H18C17.1562 13 16.5 13.7031 16.5 14.5V16C16.5 16.8438 17.1562 17.5 18 17.5H19.5C20.2969 17.5 21 16.8438 21 16V14.5C21 13.7031 20.2969 13 19.5 13ZM19.5 16H18V14.5H19.5V16ZM25.5 19H24C23.1562 19 22.5 19.7031 22.5 20.5V22C22.5 22.8438 23.1562 23.5 24 23.5H25.5C26.2969 23.5 27 22.8438 27 22V20.5C27 19.7031 26.2969 19 25.5 19ZM25.5 22H24V20.5H25.5V22ZM25.5 13H24C23.1562 13 22.5 13.7031 22.5 14.5V16C22.5 16.8438 23.1562 17.5 24 17.5H25.5C26.2969 17.5 27 16.8438 27 16V14.5C27 13.7031 26.2969 13 25.5 13ZM25.5 16H24V14.5H25.5V16ZM27 5.5H14.1094C13.7812 4.65625 12.9375 4 12 4H9C8.01562 4 7.17188 4.65625 6.84375 5.5H6C4.3125 5.5 3 6.85938 3 8.5V25C3 26.6875 4.3125 28 6 28H27C28.6406 28 30 26.6875 30 25V8.5C30 6.85938 28.6406 5.5 27 5.5ZM18 7H25.5V10H18V7ZM8.25 6.25C8.25 5.875 8.57812 5.5 9 5.5H12C12.375 5.5 12.75 5.875 12.75 6.25V22C12.75 22.4219 12.375 22.75 12 22.75H9C8.57812 22.75 8.25 22.4219 8.25 22V6.25ZM28.5 25C28.5 25.8438 27.7969 26.5 27 26.5H6C5.15625 26.5 4.5 25.8438 4.5 25V8.5C4.5 7.70312 5.15625 7 6 7H6.75V22C6.75 23.2656 7.73438 24.25 9 24.25H12C13.2188 24.25 14.25 23.2656 14.25 22V7H16.5V10C16.5 10.8438 17.1562 11.5 18 11.5H25.5C26.2969 11.5 27 10.8438 27 10V7C27.7969 7 28.5 7.70312 28.5 8.5V25Z" fill="#001036"/>
</svg>
