<svg width="94" height="24" viewBox="0 0 94 24" fill="none" xmlns="http://www.w3.org/2000/svg">
<path d="M11.875 17.7656C12.2617 17.7656 12.5781 17.4492 12.5781 17.0625V14.8125C12.5781 14.4258 12.2617 14.1094 11.875 14.1094C11.4883 14.1094 11.1719 14.4258 11.1719 14.8125V17.0625C11.1719 17.4492 11.4883 17.7656 11.875 17.7656ZM19.75 12.5625C19.75 11.6484 18.9766 10.875 18.0625 10.875H17.5V8.69531C17.5 5.60156 14.9688 3.03516 11.875 3C8.78125 3 6.25 5.53125 6.25 8.625V10.875H5.6875C4.73828 10.875 4 11.6484 4 12.5625V19.3125C4 20.2617 4.73828 21 5.6875 21H18.0625C18.9766 21 19.75 20.2617 19.75 19.3125V12.5625ZM7.375 10.875V8.625C7.375 6.16406 9.37891 4.125 11.875 4.125C14.3359 4.125 16.375 6.16406 16.375 8.625V10.875H7.375ZM18.625 19.3125C18.625 19.6289 18.3438 19.875 18.0625 19.875H5.6875C5.37109 19.875 5.125 19.6289 5.125 19.3125V12.5625C5.125 12.2812 5.37109 12 5.6875 12H18.0625C18.3438 12 18.625 12.2812 18.625 12.5625V19.3125Z" fill="#F5F5F5F5"/>
<path d="M31.5039 12.1973C30.5391 11.9199 29.8359 11.5801 29.3945 11.1777C28.957 10.7715 28.7383 10.2715 28.7383 9.67773C28.7383 9.00586 29.0059 8.45117 29.541 8.01367C30.0801 7.57227 30.7793 7.35156 31.6387 7.35156C32.2246 7.35156 32.7461 7.46484 33.2031 7.69141C33.6641 7.91797 34.0195 8.23047 34.2695 8.62891C34.5234 9.02734 34.6504 9.46289 34.6504 9.93555H33.5195C33.5195 9.41992 33.3555 9.01562 33.0273 8.72266C32.6992 8.42578 32.2363 8.27734 31.6387 8.27734C31.084 8.27734 30.6504 8.40039 30.3379 8.64648C30.0293 8.88867 29.875 9.22656 29.875 9.66016C29.875 10.0078 30.0215 10.3027 30.3145 10.5449C30.6113 10.7832 31.1133 11.002 31.8203 11.2012C32.5312 11.4004 33.0859 11.6211 33.4844 11.8633C33.8867 12.1016 34.1836 12.3809 34.375 12.7012C34.5703 13.0215 34.668 13.3984 34.668 13.832C34.668 14.5234 34.3984 15.0781 33.8594 15.4961C33.3203 15.9102 32.5996 16.1172 31.6973 16.1172C31.1113 16.1172 30.5645 16.0059 30.0566 15.7832C29.5488 15.5566 29.1562 15.248 28.8789 14.8574C28.6055 14.4668 28.4688 14.0234 28.4688 13.5273H29.5996C29.5996 14.043 29.7891 14.4512 30.168 14.752C30.5508 15.0488 31.0605 15.1973 31.6973 15.1973C32.291 15.1973 32.7461 15.0762 33.0625 14.834C33.3789 14.5918 33.5371 14.2617 33.5371 13.8438C33.5371 13.4258 33.3906 13.1035 33.0977 12.877C32.8047 12.6465 32.2734 12.4199 31.5039 12.1973ZM37.123 16H36.0391V9.66016H37.123V16ZM35.9512 7.97852C35.9512 7.80273 36.0039 7.6543 36.1094 7.5332C36.2188 7.41211 36.3789 7.35156 36.5898 7.35156C36.8008 7.35156 36.9609 7.41211 37.0703 7.5332C37.1797 7.6543 37.2344 7.80273 37.2344 7.97852C37.2344 8.1543 37.1797 8.30078 37.0703 8.41797C36.9609 8.53516 36.8008 8.59375 36.5898 8.59375C36.3789 8.59375 36.2188 8.53516 36.1094 8.41797C36.0039 8.30078 35.9512 8.1543 35.9512 7.97852ZM40.334 8.125V9.66016H41.5176V10.498H40.334V14.4297C40.334 14.6836 40.3867 14.875 40.4922 15.0039C40.5977 15.1289 40.7773 15.1914 41.0312 15.1914C41.1562 15.1914 41.3281 15.168 41.5469 15.1211V16C41.2617 16.0781 40.9844 16.1172 40.7148 16.1172C40.2305 16.1172 39.8652 15.9707 39.6191 15.6777C39.373 15.3848 39.25 14.9688 39.25 14.4297V10.498H38.0957V9.66016H39.25V8.125H40.334ZM43.9668 16H42.8828V9.66016H43.9668V16ZM42.7949 7.97852C42.7949 7.80273 42.8477 7.6543 42.9531 7.5332C43.0625 7.41211 43.2227 7.35156 43.4336 7.35156C43.6445 7.35156 43.8047 7.41211 43.9141 7.5332C44.0234 7.6543 44.0781 7.80273 44.0781 7.97852C44.0781 8.1543 44.0234 8.30078 43.9141 8.41797C43.8047 8.53516 43.6445 8.59375 43.4336 8.59375C43.2227 8.59375 43.0625 8.53516 42.9531 8.41797C42.8477 8.30078 42.7949 8.1543 42.7949 7.97852ZM45.4199 12.7715C45.4199 12.1504 45.541 11.5918 45.7832 11.0957C46.0293 10.5996 46.3691 10.2168 46.8027 9.94727C47.2402 9.67773 47.7383 9.54297 48.2969 9.54297C49.1602 9.54297 49.8574 9.8418 50.3887 10.4395C50.9238 11.0371 51.1914 11.832 51.1914 12.8242V12.9004C51.1914 13.5176 51.0723 14.0723 50.834 14.5645C50.5996 15.0527 50.2617 15.4336 49.8203 15.707C49.3828 15.9805 48.8789 16.1172 48.3086 16.1172C47.4492 16.1172 46.752 15.8184 46.2168 15.2207C45.6855 14.623 45.4199 13.832 45.4199 12.8477V12.7715ZM46.5098 12.9004C46.5098 13.6035 46.6719 14.168 46.9961 14.5938C47.3242 15.0195 47.7617 15.2324 48.3086 15.2324C48.8594 15.2324 49.2969 15.0176 49.6211 14.5879C49.9453 14.1543 50.1074 13.5488 50.1074 12.7715C50.1074 12.0762 49.9414 11.5137 49.6094 11.084C49.2812 10.6504 48.8438 10.4336 48.2969 10.4336C47.7617 10.4336 47.3301 10.6465 47.002 11.0723C46.6738 11.498 46.5098 12.1074 46.5098 12.9004ZM58.2109 12.1973C57.2461 11.9199 56.543 11.5801 56.1016 11.1777C55.6641 10.7715 55.4453 10.2715 55.4453 9.67773C55.4453 9.00586 55.7129 8.45117 56.248 8.01367C56.7871 7.57227 57.4863 7.35156 58.3457 7.35156C58.9316 7.35156 59.4531 7.46484 59.9102 7.69141C60.3711 7.91797 60.7266 8.23047 60.9766 8.62891C61.2305 9.02734 61.3574 9.46289 61.3574 9.93555H60.2266C60.2266 9.41992 60.0625 9.01562 59.7344 8.72266C59.4062 8.42578 58.9434 8.27734 58.3457 8.27734C57.791 8.27734 57.3574 8.40039 57.0449 8.64648C56.7363 8.88867 56.582 9.22656 56.582 9.66016C56.582 10.0078 56.7285 10.3027 57.0215 10.5449C57.3184 10.7832 57.8203 11.002 58.5273 11.2012C59.2383 11.4004 59.793 11.6211 60.1914 11.8633C60.5938 12.1016 60.8906 12.3809 61.082 12.7012C61.2773 13.0215 61.375 13.3984 61.375 13.832C61.375 14.5234 61.1055 15.0781 60.5664 15.4961C60.0273 15.9102 59.3066 16.1172 58.4043 16.1172C57.8184 16.1172 57.2715 16.0059 56.7637 15.7832C56.2559 15.5566 55.8633 15.248 55.5859 14.8574C55.3125 14.4668 55.1758 14.0234 55.1758 13.5273H56.3066C56.3066 14.043 56.4961 14.4512 56.875 14.752C57.2578 15.0488 57.7676 15.1973 58.4043 15.1973C58.998 15.1973 59.4531 15.0762 59.7695 14.834C60.0859 14.5918 60.2441 14.2617 60.2441 13.8438C60.2441 13.4258 60.0977 13.1035 59.8047 12.877C59.5117 12.6465 58.9805 12.4199 58.2109 12.1973ZM65.2832 16.1172C64.4238 16.1172 63.7246 15.8359 63.1855 15.2734C62.6465 14.707 62.377 13.9512 62.377 13.0059V12.8066C62.377 12.1777 62.4961 11.6172 62.7344 11.125C62.9766 10.6289 63.3125 10.2422 63.7422 9.96484C64.1758 9.68359 64.6445 9.54297 65.1484 9.54297C65.9727 9.54297 66.6133 9.81445 67.0703 10.3574C67.5273 10.9004 67.7559 11.6777 67.7559 12.6895V13.1406H63.4609C63.4766 13.7656 63.6582 14.2715 64.0059 14.6582C64.3574 15.041 64.8027 15.2324 65.3418 15.2324C65.7246 15.2324 66.0488 15.1543 66.3145 14.998C66.5801 14.8418 66.8125 14.6348 67.0117 14.377L67.6738 14.8926C67.1426 15.709 66.3457 16.1172 65.2832 16.1172ZM65.1484 10.4336C64.7109 10.4336 64.3438 10.5938 64.0469 10.9141C63.75 11.2305 63.5664 11.6758 63.4961 12.25H66.6719V12.168C66.6406 11.6172 66.4922 11.1914 66.2266 10.8906C65.9609 10.5859 65.6016 10.4336 65.1484 10.4336ZM68.7578 12.7773C68.7578 11.7891 68.9863 11.0039 69.4434 10.4219C69.9004 9.83594 70.5059 9.54297 71.2598 9.54297C72.0332 9.54297 72.6367 9.81641 73.0703 10.3633L73.123 9.66016H74.1133V15.8477C74.1133 16.668 73.8691 17.3145 73.3809 17.7871C72.8965 18.2598 72.2441 18.4961 71.4238 18.4961C70.9668 18.4961 70.5195 18.3984 70.082 18.2031C69.6445 18.0078 69.3105 17.7402 69.0801 17.4004L69.6426 16.75C70.1074 17.3242 70.6758 17.6113 71.3477 17.6113C71.875 17.6113 72.2852 17.4629 72.5781 17.166C72.875 16.8691 73.0234 16.4512 73.0234 15.9121V15.3672C72.5898 15.8672 71.998 16.1172 71.248 16.1172C70.5059 16.1172 69.9043 15.8184 69.4434 15.2207C68.9863 14.623 68.7578 13.8086 68.7578 12.7773ZM69.8477 12.9004C69.8477 13.6152 69.9941 14.1777 70.2871 14.5879C70.5801 14.9941 70.9902 15.1973 71.5176 15.1973C72.2012 15.1973 72.7031 14.8867 73.0234 14.2656V11.3711C72.6914 10.7656 72.1934 10.4629 71.5293 10.4629C71.002 10.4629 70.5898 10.668 70.293 11.0781C69.9961 11.4883 69.8477 12.0957 69.8477 12.9004ZM79.668 15.373C79.2461 15.8691 78.627 16.1172 77.8105 16.1172C77.1348 16.1172 76.6191 15.9219 76.2637 15.5312C75.9121 15.1367 75.7344 14.5547 75.7305 13.7852V9.66016H76.8145V13.7559C76.8145 14.7168 77.2051 15.1973 77.9863 15.1973C78.8145 15.1973 79.3652 14.8887 79.6387 14.2715V9.66016H80.7227V16H79.6914L79.668 15.373ZM85.4395 10.6328C85.2754 10.6055 85.0977 10.5918 84.9062 10.5918C84.1953 10.5918 83.7129 10.8945 83.459 11.5V16H82.375V9.66016H83.4297L83.4473 10.3926C83.8027 9.82617 84.3066 9.54297 84.959 9.54297C85.1699 9.54297 85.3301 9.57031 85.4395 9.625V10.6328ZM86.0371 12.7715C86.0371 12.1504 86.1582 11.5918 86.4004 11.0957C86.6465 10.5996 86.9863 10.2168 87.4199 9.94727C87.8574 9.67773 88.3555 9.54297 88.9141 9.54297C89.7773 9.54297 90.4746 9.8418 91.0059 10.4395C91.541 11.0371 91.8086 11.832 91.8086 12.8242V12.9004C91.8086 13.5176 91.6895 14.0723 91.4512 14.5645C91.2168 15.0527 90.8789 15.4336 90.4375 15.707C90 15.9805 89.4961 16.1172 88.9258 16.1172C88.0664 16.1172 87.3691 15.8184 86.834 15.2207C86.3027 14.623 86.0371 13.832 86.0371 12.8477V12.7715ZM87.127 12.9004C87.127 13.6035 87.2891 14.168 87.6133 14.5938C87.9414 15.0195 88.3789 15.2324 88.9258 15.2324C89.4766 15.2324 89.9141 15.0176 90.2383 14.5879C90.5625 14.1543 90.7246 13.5488 90.7246 12.7715C90.7246 12.0762 90.5586 11.5137 90.2266 11.084C89.8984 10.6504 89.4609 10.4336 88.9141 10.4336C88.3789 10.4336 87.9473 10.6465 87.6191 11.0723C87.291 11.498 87.127 12.1074 87.127 12.9004Z" fill="#F5F5F5F5"/>
</svg>
